<?xml version="1.0" standalone="no"?>
<!DOCTYPE svg PUBLIC "-//W3C//DTD SVG 1.1//EN" "http://www.w3.org/Graphics/SVG/1.1/DTD/svg11.dtd" >
<svg xmlns="http://www.w3.org/2000/svg">
<metadata>Generated by IcoMoon</metadata>
<defs>
<font id="icomoon" horiz-adv-x="1024">
<font-face units-per-em="1024" ascent="960" descent="-64" />
<missing-glyph horiz-adv-x="1024" />
<glyph unicode="&#x20;" horiz-adv-x="512" d="" />
<glyph unicode="&#xe900;" horiz-adv-x="2748" d="M120.456 14.691h-0.424c-2.886 0-5.263 2.377-5.263 5.348v143.29c0 2.801 2.377 5.263 5.263 5.263 3.056 0 5.518-2.377 5.518-5.263v-137.858h73.598c3.141 0 5.518-2.377 5.518-5.433 0-2.886-2.377-5.348-5.518-5.348h-78.691z" />
<glyph unicode="&#xe901;" horiz-adv-x="2748" d="M276.309 163.329c0 2.801 2.377 5.263 5.263 5.263 3.141 0 5.518-2.377 5.518-5.263v-143.29c0-2.886-2.377-5.348-5.518-5.348-2.886 0-5.263 2.377-5.263 5.348v143.29z" />
<glyph unicode="&#xe902;" horiz-adv-x="2748" d="M369.94 43.468c1.783 2.207 4.839 2.462 6.791 0.679 11.46-9.168 30.56-19.949 50.593-19.694 13.412 0 25.551 3.905 33.87 10.102 8.574 6.112 13.158 14.261 13.158 22.92 0 8.828-4.159 15.365-12.478 21.052-8.404 5.518-20.713 9.677-35.568 12.478h-0.509c-14.261 2.632-26.825 6.621-36.247 12.988-9.423 6.112-15.874 15.365-15.874 26.74 0 11.714 6.367 21.816 16.044 28.862 9.677 6.961 22.665 11.205 37.181 11.205 20.203 0 35.398-9.847 47.452-17.826 2.207-1.613 2.886-4.414 1.358-6.791-1.358-2.207-4.414-2.801-6.621-1.358-12.054 7.979-25.212 16.298-42.189 16.298-12.563 0-23.769-3.735-31.493-9.168-7.64-5.687-12.139-13.158-12.139-21.137 0.255-7.725 3.735-13.412 11.46-18.675 7.725-5.348 19.185-8.998 33.021-11.714h0.424c15.45-2.801 29.032-7.215 39.133-14.006 10.187-6.621 16.978-16.723 16.978-29.032 0-12.394-7.046-23.344-17.402-30.814s-24.193-12.139-39.558-12.139c-23.514 0.255-43.972 12.139-56.705 22.241-1.952 1.783-2.207 4.923-0.679 6.791z" />
<glyph unicode="&#xe903;" horiz-adv-x="2748" d="M595.317 157.896h-46.434c-2.801 0-5.263 2.377-5.263 5.433 0 2.801 2.462 5.263 5.263 5.263h103.308c2.886 0 5.348-2.377 5.348-5.263 0-3.056-2.462-5.433-5.348-5.433h-46.349v-137.858c0-2.886-2.377-5.348-5.263-5.348s-5.263 2.377-5.263 5.348v137.858z" />
<glyph unicode="&#xe904;" horiz-adv-x="2748" d="M796.501 54.503h-70.117l-13.667-36.247c-0.849-2.207-2.886-3.565-5.093-3.565-0.424 0-1.358 0.255-1.952 0.255-2.632 1.104-4.159 4.414-3.056 7.046l53.394 142.696c0.934 1.868 3.056 3.311 5.263 3.311 2.462 0 4.669-1.443 5.348-3.311l53.394-142.696c1.104-2.632-0.17-5.942-2.801-7.046-0.934 0-1.358-0.255-1.952-0.255-1.952 0-4.159 1.358-5.093 3.565l-13.667 36.247zM730.289 65.284h62.223l-30.984 82.681-31.239-82.681z" />
<glyph unicode="&#xe905;" horiz-adv-x="2748" d="M996.327 14.691h-0.934c-2.632 0.255-4.839 2.377-4.839 5.348v143.29c0 2.801 2.377 5.263 5.263 5.263h28.862c42.444 0 76.908-34.719 76.908-77.078 0-42.444-34.549-76.738-76.908-76.738h-28.352zM1024.679 25.472c36.502 0 66.127 29.456 66.127 65.958 0 36.756-29.711 66.127-66.127 66.382h-23.259v-132.425h23.259z" />
<glyph unicode="&#xe906;" horiz-adv-x="2748" d="M1172.893 163.329c0 2.801 2.377 5.263 5.263 5.263h79.115c3.056 0 5.263-2.377 5.263-5.263 0-3.056-2.207-5.433-5.263-5.433h-73.683v-60.949h64.43c2.886 0 5.263-2.377 5.263-5.433 0-2.886-2.377-5.348-5.263-5.348h-64.43v-60.695h73.683c3.056 0 5.263-2.377 5.263-5.433 0-2.886-2.207-5.348-5.263-5.348h-79.625c-2.632 0.255-4.839 2.377-4.839 5.348v143.29z" />
<glyph unicode="&#xe907;" horiz-adv-x="2748" d="M1516.009 49.41c0 11.205-5.603 18.251-12.478 23.259-6.791 4.839-14.94 7.3-17.826 7.725-0.679 0.255-0.849 0.424-1.104 0.424h-37.351v-60.864c0-2.886-2.377-5.348-5.433-5.348-2.801 0-5.348 2.377-5.348 5.348v143.375c0 2.632 2.207 5.093 4.839 5.263h44.057c24.108 0 43.717-19.524 43.717-43.972 0-17.572-10.271-32.767-25.212-39.812 0.679-0.424 1.358-0.679 2.122-1.104 10.102-5.687 20.713-16.893 20.713-34.295 0-8.998 0.849-14.516 1.952-17.826 0.849-2.632 1.868-3.48 2.122-3.735 2.377 0.255 5.093-1.104 5.942-3.48 0.679-2.886-0.679-5.942-3.565-7.046-0.255 0-1.273-0.255-2.632-0.255h-0.424c-2.801 0-7.47 2.207-9.932 7.046-2.547 5.093-4.159 12.394-4.159 25.297zM1485.28 157.896h-38.030v-66.382h38.963c17.742 0.424 32.342 15.195 32.342 33.191 0 18.421-15.025 33.191-33.276 33.191z" />
<glyph unicode="&#xe908;" horiz-adv-x="2748" d="M1612.187 163.329c0 2.801 2.292 5.263 5.263 5.263h79.2c2.971 0 5.348-2.377 5.348-5.263 0-3.056-2.292-5.433-5.348-5.433h-73.598v-60.949h64.345c2.801 0 5.348-2.377 5.348-5.433 0-2.886-2.462-5.348-5.348-5.348h-64.345v-60.695h73.598c2.971 0 5.348-2.377 5.348-5.433 0-2.886-2.292-5.348-5.348-5.348h-79.625c-2.632 0.255-4.839 2.377-4.839 5.348v143.29z" />
<glyph unicode="&#xe909;" horiz-adv-x="2748" d="M1849.618 84.044c-3.141 0-5.518 2.122-5.518 5.263s2.377 5.433 5.518 5.433h48.131c2.632-0.17 4.839-2.547 4.839-5.433v-53.649c-0.17-1.613-0.849-3.056-1.952-3.99-13.582-10.781-30.644-16.893-49.574-16.893-44.226 0.255-80.049 34.719-80.049 78.266 0 42.868 35.823 77.842 80.049 77.842 19.1 0 35.992-6.621 49.914-17.402 1.868-1.528 2.547-5.263 0.594-7.47-1.783-2.122-5.093-2.547-7.725-0.849-11.205 9.168-26.4 14.94-42.783 14.94-38.454 0-69.268-30.050-69.268-67.061 0-37.351 30.814-67.486 69.268-67.486 14.94 0 29.201 4.839 40.661 13.158v45.33h-42.104z" />
<glyph unicode="&#xe90a;" horiz-adv-x="2748" d="M2076.013 54.503h-70.117l-13.667-36.247c-0.849-2.207-2.801-3.565-5.008-3.565-0.509 0-1.358 0.255-1.952 0.255-2.632 1.104-4.159 4.414-3.141 7.046l53.479 142.696c0.934 1.868 3.056 3.311 5.348 3.311 2.377 0 4.584-1.443 5.263-3.311l53.479-142.696c1.104-2.632-0.255-5.942-2.886-7.046-0.849 0-1.358-0.255-1.952-0.255-1.952 0-4.159 1.358-5.008 3.565l-13.837 36.247zM2009.885 65.284h62.223l-30.984 82.681-31.239-82.681z" />
<glyph unicode="&#xe90b;" horiz-adv-x="2748" d="M2174.737 14.691h-0.424c-2.886 0-5.348 2.377-5.348 5.348v143.29c0 2.801 2.377 5.263 5.348 5.263 3.056 0 5.433-2.377 5.433-5.263v-137.858h73.683c2.971 0 5.433-2.377 5.433-5.433 0-2.886-2.462-5.348-5.433-5.348h-78.691z" />
<glyph unicode="&#xe90c;" horiz-adv-x="2748" d="M2386.617 170.799c41.086 0 73.428-34.974 73.683-78.097-0.255-43.038-32.597-78.012-73.683-78.012-41.425 0-74.022 34.974-74.277 78.012 0.255 43.123 32.852 78.097 74.277 78.097zM2386.617 25.472c33.87 0 62.477 29.711 62.647 67.231-0.17 38.030-28.777 67.061-62.647 67.061-34.889 0-63.496-29.032-63.496-67.061 0-37.52 28.607-67.231 63.496-67.231z" />
<glyph unicode="&#xe90d;" horiz-adv-x="2748" d="M2533.133 43.468c1.783 2.207 4.923 2.462 6.791 0.679 11.46-9.168 30.56-19.949 50.593-19.694 13.412 0 25.466 3.905 33.87 10.102 8.574 6.112 13.073 14.261 13.073 22.92 0 8.828-4.159 15.365-12.394 21.052-8.489 5.518-20.713 9.677-35.653 12.478h-0.509c-14.261 2.632-26.74 6.621-36.247 12.988-9.423 6.112-15.874 15.365-15.874 26.74 0 11.714 6.367 21.816 16.044 28.862 9.592 6.961 22.58 11.205 37.181 11.205 20.203 0 35.313-9.847 47.452-17.826 2.207-1.613 2.886-4.414 1.358-6.791-1.358-2.207-4.329-2.801-6.536-1.358-12.139 7.979-25.297 16.214-42.189 16.214-12.563 0-23.684-3.735-31.493-9.168-7.64-5.687-12.054-13.158-12.054-21.137 0.255-7.725 3.735-13.412 11.375-18.675 7.81-5.348 19.27-8.998 33.021-11.714h0.509c15.45-2.801 29.032-7.215 39.133-14.006 10.102-6.621 16.893-16.723 16.893-29.032 0-12.394-7.046-23.344-17.402-30.814-10.271-7.47-24.193-12.139-39.558-12.139-23.514 0.255-43.972 12.139-56.705 22.241-2.037 1.868-2.292 5.008-0.679 6.876z" />
<glyph unicode="&#xe90e;" horiz-adv-x="2748" d="M1098.277 607.377c-67.655 178.604-324.61 169.945-377.495-11.799-13.667-46.773-10.866-90.32 8.659-135.226 51.612-118.503 197.958-164.852 315.188-72.324v-52.376h65.618v173.765c0.085 35.568 0.849 64.175-11.969 97.96zM910.76 405.259c-73.767 0-133.868 60.1-133.868 133.953 0 73.767 60.1 133.868 133.868 133.868 73.683 0 133.868-60.1 133.868-133.868s-60.1-133.953-133.868-133.953z" />
<glyph unicode="&#xe90f;" horiz-adv-x="2748" d="M1110.84 672.485v65.364l70.287 0.085v143.63h65.448v-143.715h77.927v-64.769h-77.927v-259.841c-0.255-10.187 3.65-16.808 14.855-17.062h44.736l0.085-60.355-59.761-0.34c-40.491 0.085-64.769 20.543-65.364 60.695v276.224l-70.287 0.085z" />
<glyph unicode="&#xe910;" horiz-adv-x="2748" d="M1362.023 738.019h68.674v-402.452h-68.674v402.452z" />
<glyph unicode="&#xe911;" horiz-adv-x="2748" d="M1457.012 396.261l41.171 44.142c18.506-20.797 52.8-45.16 77.163-43.972 39.727 1.783 61.883 29.201 60.355 56.026-3.99 76.229-164.767 67.316-157.382 187.856 7.979 77.333 66.382 102.375 109.081 101.526 45.754-1.019 86.67-29.626 111.203-60.864l-40.661-39.473c-20.882 19.439-38.284 39.812-74.701 39.473-28.098-1.019-46.009-21.731-46.009-43.887-1.783-67.401 158.146-68.080 160.523-184.036-4.584-66.976-53.225-117.569-120.54-116.636-47.367-0.679-94.989 28.013-120.201 59.846z" />
<glyph unicode="&#xe912;" horiz-adv-x="2748" d="M1717.872 396.94l41.171 44.142c18.59-20.797 52.8-45.16 77.248-43.972 39.643 1.698 61.713 29.116 60.185 55.941-3.905 76.229-164.597 67.316-157.382 187.772 7.979 77.418 66.467 102.459 109.081 101.526 45.754-0.934 86.67-29.626 111.288-60.864l-40.661-39.473c-20.882 19.439-38.454 39.897-74.786 39.473-28.098-0.934-45.924-21.731-46.094-43.802-1.783-67.486 158.146-68.165 160.523-184.121-4.499-66.976-53.055-117.485-120.54-116.551-47.113-0.594-94.82 28.098-120.031 59.931z" />
<glyph unicode="&#xe913;" horiz-adv-x="2748" d="M2374.563 396.346l41.171 44.142c18.506-20.797 52.8-45.16 77.163-43.972 39.727 1.783 61.883 29.201 60.355 55.941-3.99 76.229-164.767 67.316-157.382 187.772 7.895 77.418 66.382 102.544 109.081 101.526 45.67-1.019 86.67-29.626 111.118-60.78l-40.576-39.388c-20.882 19.439-38.284 39.897-74.701 39.558-28.098-1.104-45.924-21.816-46.009-43.887-1.783-67.486 157.976-68.080 160.523-184.121-4.499-66.976-53.225-117.485-120.54-116.551-47.452-0.764-94.989 28.013-120.201 59.761z" />
<glyph unicode="&#xe914;" horiz-adv-x="2748" d="M2172.021 392.865c-87.434 4.669-128.096 58.233-132.17 135.141l330.043 0.34c-1.019 136.414-88.538 209.333-198.637 211.625-97.027 2.801-193.714-76.229-196.345-199.826 6.621-117.994 69.608-200.165 199.91-204.579 79.879-1.273 151.185 46.858 186.413 119.182l-54.753 29.88c-27.673-53.564-70.457-91.509-134.462-91.764zM2170.238 680.72c51.017-1.104 114.174-26.57 128.52-98.385l-251.692 0.17c4.075 33.531 49.574 98.639 123.172 98.215z" />
<glyph unicode="&#xe915;" horiz-adv-x="2748" d="M100.847 335.651h60.864v254.239c21.052 107.043 169.945 123.342 193.374 0.255l0.17-254.578 63.92 0.085 0.085 254.239c30.305 133.868 194.902 90.151 193.459-0.085v-254.239h61.798v254.323c-5.008 161.287-216.633 188.026-286.071 85.821-74.786 104.667-280.639 70.966-287.599-85.906v-254.154z" />
</font>
</defs>
</svg>
